<svg width="105" height="20" viewBox="0 0 105 20" fill="none" xmlns="http://www.w3.org/2000/svg">
<path d="M105 19.2857H0V20H105V19.2857Z" fill="#111111"/>
<path fill-rule="evenodd" clip-rule="evenodd" d="M19.88 0V16.8667H26.3535C27.4344 16.8667 28.3454 16.7747 29.0866 16.5906C29.8354 16.3988 30.4569 16.1189 30.951 15.7507C31.4451 15.3825 31.8582 14.861 32.1901 14.186C32.5298 13.5034 32.6997 12.767 32.6997 11.977C32.6997 10.9952 32.4217 10.1438 31.8659 9.42282C31.3177 8.70182 30.5303 8.19175 29.5034 7.89262C30.2986 7.50144 30.8931 6.98754 31.2869 6.35091C31.6806 5.71429 31.8775 5.03547 31.8775 4.31448C31.8775 3.53979 31.6536 2.79962 31.2058 2.09396C30.7657 1.38063 30.152 0.855225 29.3645 0.517737C28.5847 0.172579 27.5463 0 26.2493 0H19.88ZM25.7977 7.08725H22.1267V1.99041H25.5198C26.7396 1.99041 27.6004 2.07095 28.1022 2.23202C28.604 2.38543 28.99 2.67689 29.2603 3.10642C29.5305 3.52828 29.6656 4.01918 29.6656 4.5791C29.6656 5.1697 29.5189 5.66059 29.2255 6.05177C28.9399 6.44295 28.5114 6.72291 27.9401 6.89166C27.5077 7.02205 26.7936 7.08725 25.7977 7.08725ZM26.3535 14.8763H22.1267V9.07766H26.0525C27.1333 9.07766 27.9594 9.17354 28.5307 9.36529C29.1097 9.54938 29.5614 9.87536 29.8856 10.3432C30.2099 10.8035 30.372 11.348 30.372 11.977C30.372 12.5139 30.26 12.9895 30.0362 13.4036C29.8123 13.8102 29.5266 14.1208 29.1792 14.3356C28.8318 14.5503 28.3994 14.7037 27.8822 14.7958C27.5888 14.8495 27.0793 14.8763 26.3535 14.8763Z" fill="#111111"/>
<path fill-rule="evenodd" clip-rule="evenodd" d="M45.5528 13.1965L43.3989 12.9319C43.0823 13.8063 42.6539 14.443 42.1134 14.8418C41.573 15.2407 40.9206 15.4401 40.1563 15.4401C39.1295 15.4401 38.2726 15.0834 37.5854 14.3701C36.8983 13.6568 36.5162 12.629 36.439 11.2867H45.6107C45.6185 11.0412 45.6223 10.8571 45.6223 10.7344C45.6223 8.71716 45.1012 7.15244 44.059 6.04027C43.0167 4.92809 41.6734 4.372 40.0289 4.372C38.3305 4.372 36.9485 4.9396 35.8831 6.07478C34.8177 7.20997 34.285 8.80537 34.285 10.861C34.285 12.8476 34.81 14.3931 35.86 15.4976C36.9176 16.5944 38.3459 17.1429 40.1447 17.1429C41.573 17.1429 42.7465 16.7977 43.6652 16.1074C44.5839 15.4171 45.2131 14.4468 45.5528 13.1965ZM43.422 9.58389H36.5548C36.6243 8.51774 36.9833 7.66635 37.6318 7.02972C38.288 6.3931 39.0948 6.07478 40.0521 6.07478C41.1098 6.07478 41.9706 6.47363 42.6346 7.27133C43.0669 7.78523 43.3294 8.55609 43.422 9.58389Z" fill="#111111"/>
<path d="M47.613 16.8667V4.64813H49.489V6.50048C49.9677 5.63375 50.4077 5.06232 50.8092 4.78619C51.2184 4.51007 51.6661 4.372 52.1525 4.372C52.8551 4.372 53.5692 4.59444 54.2949 5.03931L53.5769 6.96069C53.0674 6.66155 52.5578 6.51198 52.0483 6.51198C51.5928 6.51198 51.1836 6.65005 50.8208 6.92617C50.4579 7.19463 50.1993 7.57047 50.0449 8.05369C49.8133 8.79003 49.6975 9.5954 49.6975 10.4698V16.8667H47.613Z" fill="#111111"/>
<path fill-rule="evenodd" clip-rule="evenodd" d="M65.5616 13.1965L63.4076 12.9319C63.0911 13.8063 62.6626 14.443 62.1222 14.8418C61.5817 15.2407 60.9294 15.4401 60.1651 15.4401C59.1382 15.4401 58.2813 15.0834 57.5942 14.3701C56.9071 13.6568 56.5249 12.629 56.4477 11.2867H65.6195C65.6272 11.0412 65.6311 10.8571 65.6311 10.7344C65.6311 8.71716 65.1099 7.15244 64.0677 6.04027C63.0254 4.92809 61.6821 4.372 60.0377 4.372C58.3392 4.372 56.9572 4.9396 55.8918 6.07478C54.8264 7.20997 54.2937 8.80537 54.2937 10.861C54.2937 12.8476 54.8187 14.3931 55.8687 15.4976C56.9264 16.5944 58.3546 17.1429 60.1535 17.1429C61.5817 17.1429 62.7552 16.7977 63.6739 16.1074C64.5927 15.4171 65.2219 14.4468 65.5616 13.1965ZM63.4308 9.58389H56.5635C56.633 8.51774 56.992 7.66635 57.6405 7.02972C58.2967 6.3931 59.1035 6.07478 60.0608 6.07478C61.1185 6.07478 61.9793 6.47363 62.6433 7.27133C63.0756 7.78523 63.3381 8.55609 63.4308 9.58389Z" fill="#111111"/>
<path d="M66.5447 16.8667V15.187L74.3731 6.25887C73.4853 6.30489 72.7017 6.3279 72.0223 6.3279H67.0079V4.64813H77.0598V6.01726L70.401 13.7718L69.1156 15.187C70.0498 15.1179 70.926 15.0834 71.7444 15.0834H77.4304V16.8667H66.5447Z" fill="#111111"/>
<path d="M78.9694 0V16.8667H81.0539V12.023L82.5246 10.6194L86.5894 16.8667H89.1603L83.9838 9.18121L88.6855 4.64813H85.9872L81.0539 9.61841V0H78.9694Z" fill="#111111"/>
<path d="M90.2824 2.38159V0H92.3669V2.38159H90.2824Z" fill="#111111"/>
<path d="M90.2824 16.8667V4.64813H92.3669V16.8667H90.2824Z" fill="#111111"/>
<path d="M95.006 4.64813V16.8667H97.0905V10.1937C97.0905 8.62895 97.4109 7.56663 98.0517 7.00671C98.7002 6.44679 99.4684 6.16683 100.356 6.16683C100.912 6.16683 101.395 6.29338 101.804 6.5465C102.221 6.79195 102.51 7.1256 102.672 7.54746C102.834 7.96165 102.916 8.5906 102.916 9.43432V16.8667H105V9.35379C105 8.39501 104.961 7.72387 104.884 7.34036C104.761 6.74976 104.545 6.23969 104.236 5.81016C103.927 5.38063 103.46 5.03547 102.834 4.77469C102.217 4.50623 101.537 4.372 100.796 4.372C99.0901 4.372 97.7853 5.04314 96.882 6.38543V4.64813H95.006Z" fill="#111111"/>
<path fill-rule="evenodd" clip-rule="evenodd" d="M6.51983 0.0193282L0 16.8861H2.38559L4.25005 11.7777H11.3489L13.3292 16.8861H15.8885L8.94016 0.0193282H6.51983ZM10.6541 9.95988H4.89856L6.76302 5.01262C7.15676 3.94646 7.46171 2.87264 7.67788 1.79114C7.94038 2.70389 8.34183 3.86976 8.88226 5.28874L10.6541 9.95988Z" fill="#111111"/>
<path d="M16.8391 14.5105V16.892H18.9236V14.5105H16.8391Z" fill="#111111"/>
<path d="M57.0317 0V2.38159H59.1162V0H57.0317Z" fill="#111111"/>
<path d="M61.4675 2.38159V0H63.552V2.38159H61.4675Z" fill="#111111"/>
</svg>
