<svg width="16" height="16" viewBox="0 0 16 16" fill="none" xmlns="http://www.w3.org/2000/svg">
<path d="M7.99992 4C8.17673 4 8.3463 3.92976 8.47132 3.80474C8.59635 3.67971 8.66659 3.51014 8.66659 3.33333V2C8.66659 1.82319 8.59635 1.65362 8.47132 1.52859C8.3463 1.40357 8.17673 1.33333 7.99992 1.33333C7.82311 1.33333 7.65354 1.40357 7.52851 1.52859C7.40349 1.65362 7.33325 1.82319 7.33325 2V3.33333C7.33325 3.51014 7.40349 3.67971 7.52851 3.80474C7.65354 3.92976 7.82311 4 7.99992 4ZM13.9999 7.33333H12.6666C12.4898 7.33333 12.3202 7.40357 12.1952 7.52859C12.0702 7.65362 11.9999 7.82319 11.9999 8C11.9999 8.17681 12.0702 8.34638 12.1952 8.4714C12.3202 8.59643 12.4898 8.66667 12.6666 8.66667H13.9999C14.1767 8.66667 14.3463 8.59643 14.4713 8.4714C14.5963 8.34638 14.6666 8.17681 14.6666 8C14.6666 7.82319 14.5963 7.65362 14.4713 7.52859C14.3463 7.40357 14.1767 7.33333 13.9999 7.33333ZM3.99992 8C3.99992 7.82319 3.92968 7.65362 3.80466 7.52859C3.67963 7.40357 3.51006 7.33333 3.33325 7.33333H1.99992C1.82311 7.33333 1.65354 7.40357 1.52851 7.52859C1.40349 7.65362 1.33325 7.82319 1.33325 8C1.33325 8.17681 1.40349 8.34638 1.52851 8.4714C1.65354 8.59643 1.82311 8.66667 1.99992 8.66667H3.33325C3.51006 8.66667 3.67963 8.59643 3.80466 8.4714C3.92968 8.34638 3.99992 8.17681 3.99992 8ZM4.14659 3.33333C4.01663 3.21045 3.84318 3.14422 3.6644 3.14922C3.48561 3.15422 3.31614 3.23004 3.19325 3.36C3.07037 3.48995 3.00414 3.6634 3.00914 3.84219C3.01414 4.02097 3.08996 4.19045 3.21992 4.31333L4.17992 5.24C4.24434 5.30221 4.32064 5.35079 4.40425 5.38287C4.48787 5.41494 4.57709 5.42983 4.66659 5.42667C4.75639 5.42632 4.8452 5.40784 4.92768 5.37233C5.01016 5.33681 5.08462 5.285 5.14659 5.22C5.27075 5.09509 5.34045 4.92612 5.34045 4.75C5.34045 4.57387 5.27075 4.40491 5.14659 4.28L4.14659 3.33333ZM11.3333 5.42667C11.5049 5.42598 11.6697 5.35912 11.7933 5.24L12.7533 4.31333C12.8704 4.19097 12.9365 4.02861 12.9383 3.85924C12.94 3.68988 12.8772 3.5262 12.7626 3.40145C12.6481 3.27669 12.4903 3.20023 12.3214 3.18758C12.1525 3.17493 11.9851 3.22704 11.8533 3.33333L10.8933 4.28C10.7691 4.40491 10.6994 4.57387 10.6994 4.75C10.6994 4.92612 10.7691 5.09509 10.8933 5.22C11.0087 5.34181 11.1658 5.41561 11.3333 5.42667ZM7.99992 12C7.82311 12 7.65354 12.0702 7.52851 12.1953C7.40349 12.3203 7.33325 12.4899 7.33325 12.6667V14C7.33325 14.1768 7.40349 14.3464 7.52851 14.4714C7.65354 14.5964 7.82311 14.6667 7.99992 14.6667C8.17673 14.6667 8.3463 14.5964 8.47132 14.4714C8.59635 14.3464 8.66659 14.1768 8.66659 14V12.6667C8.66659 12.4899 8.59635 12.3203 8.47132 12.1953C8.3463 12.0702 8.17673 12 7.99992 12ZM11.8199 10.76C11.6926 10.6371 11.5217 10.5698 11.3448 10.573C11.1679 10.5761 10.9995 10.6494 10.8766 10.7767C10.7537 10.904 10.6864 11.0749 10.6895 11.2518C10.6927 11.4287 10.7659 11.5971 10.8933 11.72L11.8533 12.6667C11.9768 12.7858 12.1416 12.8526 12.3133 12.8533C12.4026 12.8539 12.4911 12.8364 12.5736 12.8021C12.656 12.7677 12.7307 12.7171 12.7933 12.6533C12.8557 12.5914 12.9053 12.5176 12.9392 12.4364C12.973 12.3551 12.9905 12.268 12.9905 12.18C12.9905 12.092 12.973 12.0049 12.9392 11.9236C12.9053 11.8424 12.8557 11.7686 12.7933 11.7067L11.8199 10.76ZM4.17992 10.76L3.21992 11.6867C3.15743 11.7486 3.10784 11.8224 3.07399 11.9036C3.04015 11.9849 3.02272 12.072 3.02272 12.16C3.02272 12.248 3.04015 12.3351 3.07399 12.4164C3.10784 12.4976 3.15743 12.5714 3.21992 12.6333C3.28245 12.6971 3.35716 12.7477 3.43961 12.7821C3.52207 12.8164 3.61059 12.8339 3.69992 12.8333C3.86426 12.8347 4.02333 12.7754 4.14659 12.6667L5.10659 11.74C5.23389 11.6171 5.30716 11.4487 5.31029 11.2718C5.31342 11.0949 5.24614 10.924 5.12325 10.7967C5.00037 10.6694 4.83195 10.5961 4.65504 10.593C4.47813 10.5898 4.30722 10.6571 4.17992 10.78V10.76ZM7.99992 5.33333C7.4725 5.33333 6.95693 5.48973 6.5184 5.78275C6.07987 6.07576 5.73807 6.49224 5.53624 6.97951C5.33441 7.46678 5.2816 8.00296 5.38449 8.52024C5.48738 9.03752 5.74136 9.51268 6.1143 9.88562C6.48724 10.2586 6.9624 10.5125 7.47968 10.6154C7.99696 10.7183 8.53314 10.6655 9.02041 10.4637C9.50768 10.2618 9.92415 9.92005 10.2172 9.48152C10.5102 9.04299 10.6666 8.52742 10.6666 8C10.6666 7.29276 10.3856 6.61448 9.88554 6.11438C9.38544 5.61428 8.70716 5.33333 7.99992 5.33333Z" fill="#111111"/>
</svg>
