<svg viewBox="0 0 33 34" fill="none" xmlns="http://www.w3.org/2000/svg">
<path d="M14.8555 20.4351H17.3746V13.5619H14.8555V20.4351Z" fill="#F6871B"/>
<path d="M22.3631 10.2188V18.51C22.3631 20.9083 21.6981 21.2905 18.9225 22.9061L5.27537 31.0781C4.68819 31.4208 4.18783 31.5989 3.78052 31.5989C3.75651 31.5989 3.7295 31.5946 3.70571 31.5946C2.88186 31.5454 2.48333 30.9153 2.4861 29.6603V4.24189C2.4861 3.56856 2.62718 3.11039 2.93012 2.80176C3.18157 2.54821 3.49605 2.41904 3.86157 2.41904C4.28089 2.41904 4.76346 2.58684 5.29338 2.91929L8.31009 4.80114C9.76917 5.71614 10.4071 6.10935 10.6768 6.27809V3.44858C10.3233 3.22722 9.37686 2.63255 6.57254 0.86343C5.6395 0.276257 4.73322 0.000114441 3.72673 0.000114441C2.63018 0.000114441 1.65971 0.435867 0.994715 1.23106C0.341501 2.00541 0 3.04501 0 4.24189V29.7538C0 31.0115 0.347505 32.0825 1.00349 32.8374C1.66571 33.5937 2.59739 33.9973 3.70133 34H3.70733C4.61615 34 5.57185 33.7108 6.54577 33.1367L19.5385 25.3461L20.1885 24.9663C23.0762 23.2904 24.8197 22.2787 24.8227 18.5127V10.2188H22.3631Z" fill="#2E9BB7"/>
<path d="M9.87134 23.7767V15.4888C9.87134 13.0877 10.5306 12.705 13.3104 11.0926L26.9559 2.92198C27.5433 2.57771 28.0467 2.40276 28.448 2.40276C28.4747 2.40276 28.505 2.40276 28.5304 2.40552C29.3526 2.45193 29.7481 3.08505 29.7481 4.34133V29.7552C29.7481 30.4299 29.6075 30.8869 29.3004 31.1983C29.0513 31.4505 28.737 31.5797 28.3745 31.5797C27.9536 31.5797 27.4683 31.4105 26.9383 31.0781L23.9274 29.196C22.4593 28.284 21.8304 27.8866 21.5576 27.7204V30.5474C21.9112 30.7683 22.8537 31.3659 25.6591 33.1337C26.5966 33.724 27.4985 34 28.5077 34C29.6011 34 30.5717 33.561 31.243 32.7658C31.8902 31.9949 32.2331 30.958 32.2331 29.7552V4.24488C32.2331 2.98578 31.8902 1.92083 31.225 1.16152C30.569 0.403618 29.6373 0.00146103 28.5304 0.000114441C27.6243 0.000114441 26.6656 0.290657 25.6892 0.860447L12.6931 8.65294L12.0464 9.02946C9.15858 10.7069 7.41642 11.7232 7.41016 15.4856V23.7767H9.87134Z" fill="#2E9BB7"/>
</svg>
