<svg width="16" height="16" viewBox="0 0 16 16" fill="none" xmlns="http://www.w3.org/2000/svg">
<path d="M8.20001 14.6667H8.13334C7.21902 14.6597 6.31528 14.4704 5.47505 14.1098C4.63481 13.7492 3.87496 13.2246 3.24001 12.5667C2.06257 11.3075 1.39326 9.65687 1.36125 7.93328C1.32924 6.20969 1.9368 4.53532 3.06667 3.23333C3.79459 2.41756 4.70969 1.79072 5.73334 1.40667C5.85278 1.3607 5.98293 1.35009 6.10823 1.3761C6.23354 1.40211 6.34872 1.46363 6.44 1.55333C6.52455 1.63955 6.58409 1.7471 6.61227 1.86452C6.64045 1.98194 6.63621 2.1048 6.6 2.22C6.23464 3.22062 6.16225 4.3047 6.39134 5.34501C6.62042 6.38533 7.14147 7.33873 7.89334 8.09333C8.65222 8.84289 9.60789 9.36218 10.6497 9.59107C11.6915 9.81996 12.7768 9.74909 13.78 9.38667C13.8994 9.34463 14.0283 9.33747 14.1516 9.366C14.275 9.39454 14.3876 9.4576 14.4764 9.5478C14.5652 9.63801 14.6265 9.75164 14.6531 9.8754C14.6797 9.99916 14.6706 10.1279 14.6267 10.2467C14.2861 11.1558 13.7541 11.9811 13.0667 12.6667C12.4272 13.3042 11.6681 13.8091 10.8329 14.1523C9.99774 14.4955 9.10296 14.6703 8.20001 14.6667Z" fill="#F4F4F4"/>
</svg>
